<svg width="190" height="32" fill="none" xmlns="http://www.w3.org/2000/svg"><path d="M37.628 18.886v-8.752l6.731 8.752h3.213L40.56 10.04l6.426-7.905h-3.12l-6.237 7.952V2.135h-2.533v16.751h2.532Zm22.984-9.552c0-2.376-.329-4.234-1.618-5.552-1.15-1.153-2.674-1.788-4.41-1.788-1.711 0-3.236.635-4.385 1.788-1.407 1.412-1.618 3.2-1.618 5.952v1.106c0 2.494.023 4.776 1.618 6.4 1.15 1.176 2.65 1.787 4.386 1.787 1.758 0 3.26-.611 4.409-1.788 1.594-1.647 1.618-3.74 1.618-6.493V9.334Zm-2.557 1.012c0 2.847 0 4.329-.985 5.364-.633.682-1.5 1.035-2.486 1.035a3.414 3.414 0 0 1-2.486-1.035c-.89-.894-.961-2.47-.961-4.188v-1.435c0-2.14.023-3.788.962-4.776.656-.682 1.547-1.035 2.485-1.035.962 0 1.83.353 2.486 1.035.938.988.985 2.494.985 5.035Zm18.622 8.54V2.136h-2.322l-7.458 12.139V2.135h-2.533v16.751h2.299l7.481-12.163v12.163h2.533Zm16.206 0V2.136h-2.557V9.31h-6.754V2.135h-2.533v16.751h2.533V11.57h6.754v7.316h2.557Zm15.76-9.552c0-2.376-.329-4.234-1.618-5.552-1.15-1.153-2.674-1.788-4.409-1.788-1.712 0-3.237.635-4.386 1.788-1.407 1.412-1.618 3.2-1.618 5.952v1.106c0 2.494.023 4.776 1.618 6.4 1.15 1.176 2.65 1.787 4.386 1.787 1.758 0 3.259-.611 4.409-1.788 1.594-1.647 1.618-3.74 1.618-6.493V9.334Zm-2.557 1.012c0 2.847 0 4.329-.985 5.364-.633.682-1.5 1.035-2.485 1.035a3.413 3.413 0 0 1-2.486-1.035c-.892-.894-.962-2.47-.962-4.188v-1.435c0-2.14.023-3.788.962-4.776.656-.682 1.547-1.035 2.486-1.035.961 0 1.829.353 2.485 1.035.939.988.985 2.494.985 5.035Zm16.089-5.929V2.135h-11.726v2.282h4.596v14.469h2.533V4.417h4.597Zm15.197 14.469V2.136h-2.322l-7.458 12.139V2.135h-2.532v16.751h2.298l7.481-12.163v12.163h2.533Zm21.835 0V2.136h-2.557V9.31h-6.754V2.135h-2.533v16.751h2.533V11.57h6.754v7.316h2.557Zm16.604 0-6.098-16.75h-2.04l-6.121 16.75h2.674l1.172-3.364h6.59l1.173 3.364h2.65Zm-4.503-5.529h-5.183l2.627-7.434 2.556 7.434Zm18.692.824c0-1.906-.868-3.106-2.51-3.882 1.478-.73 2.252-1.953 2.252-3.647 0-2.729-1.994-4.517-5.042-4.517h-6.497v16.751h6.755c3.119 0 5.042-1.811 5.042-4.705Zm-2.791-7.364c0 1.506-1.032 2.4-2.72 2.4h-3.753v-4.8h3.753c1.688 0 2.72.894 2.72 2.4Zm.234 7.223c0 1.576-1.055 2.564-2.744 2.564h-3.963v-5.105h3.963c1.689 0 2.744.988 2.744 2.54ZM47.064 25.305h.653v2.738h3.319v-2.738h.652v6.53h-.653V28.68h-3.318v3.156h-.653v-6.53Zm9.307-.163c.986 0 1.81.33 2.474.99.663.66.996 1.472.996 2.436 0 .956-.331 1.767-.993 2.432-.663.666-1.47 1-2.424 1-.964 0-1.778-.332-2.442-.995a3.275 3.275 0 0 1-.996-2.405c0-.628.152-1.209.454-1.745a3.306 3.306 0 0 1 1.237-1.258 3.313 3.313 0 0 1 1.694-.455Zm.029.636c-.48 0-.937.126-1.37.378-.43.252-.767.59-1.01 1.015a2.846 2.846 0 0 0-.363 1.427c0 .774.268 1.43.804 1.963a2.647 2.647 0 0 0 1.94.802c.505 0 .972-.123 1.401-.369a2.63 2.63 0 0 0 1.007-1.008 2.84 2.84 0 0 0 .36-1.42c0-.518-.12-.987-.36-1.405a2.702 2.702 0 0 0-1.017-1.005 2.745 2.745 0 0 0-1.392-.378Zm4.766-.473h1.283c.517 0 .914.061 1.19.184.279.123.498.312.658.567.162.253.242.537.242.846 0 .29-.071.554-.212.793-.14.238-.347.43-.62.578.34.116.6.25.78.407.183.154.324.343.425.564.101.22.153.459.153.717 0 .524-.19.968-.573 1.33-.383.363-.895.545-1.538.545h-1.788v-6.53Zm.635.637v2.092h.373c.453 0 .787-.043 1-.126a1.08 1.08 0 0 0 .694-1.006c0-.299-.104-.534-.313-.705-.21-.17-.542-.255-.999-.255h-.755Zm0 2.747v2.51h.808c.476 0 .825-.047 1.047-.14.222-.093.4-.24.535-.439a1.13 1.13 0 0 0 .203-.644c0-.291-.096-.546-.285-.762-.188-.216-.448-.364-.78-.445-.221-.053-.608-.08-1.16-.08h-.368Zm7.656-3.547c.986 0 1.81.33 2.474.99.663.66.996 1.472.996 2.436 0 .956-.331 1.767-.993 2.433-.663.665-1.47.999-2.424.999-.964 0-1.778-.332-2.442-.995a3.275 3.275 0 0 1-.995-2.405c0-.628.15-1.209.453-1.745a3.305 3.305 0 0 1 1.237-1.258 3.313 3.313 0 0 1 1.694-.455Zm.029.637c-.48 0-.937.125-1.37.377-.43.252-.767.59-1.01 1.016a2.846 2.846 0 0 0-.362 1.426c0 .775.267 1.43.803 1.963a2.647 2.647 0 0 0 1.94.802c.505 0 .972-.123 1.401-.368.431-.246.766-.582 1.007-1.009a2.84 2.84 0 0 0 .361-1.42c0-.518-.12-.986-.361-1.405a2.702 2.702 0 0 0-1.017-1.005 2.745 2.745 0 0 0-1.392-.377Zm4.757-.473h3.726v.636h-3.073v2.047h3.046v.636h-3.046V31.2h3.046v.637h-3.7v-6.53Zm7.353 0h4.624v6.53h-.653v-5.912H82.25v5.912h-.653v-6.53Zm6.203 0h1.298c.744 0 1.247.031 1.507.097.371.092.675.28.911.567.237.285.355.644.355 1.076 0 .435-.115.793-.346 1.076-.23.282-.547.472-.95.57-.297.071-.848.106-1.656.106h-.466v3.038h-.653v-6.53Zm.653.636v2.22l1.103.013c.446 0 .772-.04.98-.123.206-.082.37-.212.487-.394a1.1 1.1 0 0 0 .177-.61c0-.219-.059-.42-.177-.603a.982.982 0 0 0-.468-.388c-.194-.077-.51-.115-.95-.115h-1.152Zm7.817-.8c.985 0 1.81.33 2.474.99.663.66.995 1.472.995 2.436 0 .956-.33 1.767-.992 2.433-.664.665-1.47.999-2.424.999-.964 0-1.779-.332-2.442-.995a3.275 3.275 0 0 1-.996-2.405c0-.628.151-1.208.453-1.745a3.307 3.307 0 0 1 1.238-1.258 3.313 3.313 0 0 1 1.694-.455Zm.029.637c-.48 0-.937.126-1.37.377-.43.252-.767.59-1.01 1.016a2.846 2.846 0 0 0-.363 1.426c0 .775.267 1.43.804 1.963a2.647 2.647 0 0 0 1.939.802c.506 0 .973-.123 1.402-.368a2.63 2.63 0 0 0 1.006-1.008 2.84 2.84 0 0 0 .362-1.42c0-.519-.121-.987-.362-1.406a2.702 2.702 0 0 0-1.017-1.005 2.746 2.746 0 0 0-1.391-.377Zm10.813.732-.514.396a2.79 2.79 0 0 0-1.02-.842 2.965 2.965 0 0 0-1.307-.286 2.88 2.88 0 0 0-1.441.376c-.443.25-.785.586-1.028 1.008a2.803 2.803 0 0 0-.366 1.423c0 .798.272 1.463.816 1.995.544.534 1.23.8 2.06.8.911 0 1.673-.357 2.286-1.073l.514.391c-.325.414-.73.735-1.215.961a3.809 3.809 0 0 1-1.626.34c-1.139 0-2.038-.38-2.696-1.142-.551-.64-.828-1.417-.828-2.325 0-.955.334-1.76 1.002-2.412.67-.653 1.507-.979 2.513-.979.608 0 1.156.12 1.646.36a3.22 3.22 0 0 1 1.204 1.009Zm.662-.569v-.636h3.563v.636h-1.451v5.894h-.661v-5.893h-1.451Zm4.505-.636h1.298c.743 0 1.246.032 1.506.097.372.092.676.28.911.567.238.285.355.644.355 1.076 0 .435-.114.793-.346 1.076-.229.282-.547.472-.95.57-.296.072-.848.107-1.656.107h-.466v3.037h-.652v-6.53Zm.652.636v2.22l1.103.013c.446 0 .773-.04.98-.123.207-.081.37-.212.488-.394.118-.181.177-.386.177-.61 0-.219-.059-.42-.177-.602a.981.981 0 0 0-.469-.389c-.193-.077-.509-.115-.95-.115h-1.152Zm7.379-.636 3.037 6.53h-.699l-1.017-2.146h-2.821l-1.011 2.146h-.726l3.074-6.53h.163Zm-.081 1.37-1.12 2.377h2.235l-1.115-2.377Zm4.113-1.37h.652v2.737h3.319v-2.737h.653v6.53h-.653V28.68h-3.319v3.156h-.652v-6.53Zm12.268 1.205-.513.396a2.802 2.802 0 0 0-1.021-.842 2.96 2.96 0 0 0-1.307-.286c-.518 0-.998.126-1.441.376-.443.25-.785.586-1.028 1.008a2.802 2.802 0 0 0-.365 1.423c0 .798.272 1.463.815 1.995.545.534 1.231.8 2.06.8.911 0 1.673-.357 2.287-1.073l.513.391c-.325.414-.73.735-1.215.961a3.805 3.805 0 0 1-1.626.34c-1.139 0-2.038-.38-2.695-1.142-.552-.64-.828-1.417-.828-2.325 0-.955.334-1.76 1.001-2.412.67-.653 1.507-.979 2.513-.979.608 0 1.156.12 1.646.36s.892.577 1.204 1.009Zm.662-.569v-.636h3.563v.636h-1.45v5.894h-.662v-5.893h-1.451Zm4.523-.636h1.283c.517 0 .914.06 1.191.183.278.123.497.313.657.567.162.253.242.537.242.846 0 .29-.071.555-.212.793-.14.238-.347.43-.619.579.338.115.598.25.78.406.182.155.323.343.424.564.101.22.153.46.153.717 0 .524-.191.969-.573 1.33-.382.363-.895.545-1.538.545h-1.788v-6.53Zm.635.636v2.092h.373c.453 0 .787-.042 1-.126a1.082 1.082 0 0 0 .694-1.006c0-.299-.104-.534-.313-.705-.21-.17-.542-.255-.999-.255h-.755Zm0 2.747v2.51h.808c.476 0 .825-.047 1.047-.14.222-.093.401-.24.535-.439.135-.198.203-.414.203-.644 0-.29-.095-.546-.284-.762-.189-.215-.449-.364-.78-.444-.222-.053-.609-.08-1.161-.08h-.368Zm7.656-3.547c.986 0 1.811.33 2.474.99.663.66.996 1.472.996 2.436 0 .957-.331 1.767-.993 2.433-.663.665-1.47.999-2.424.999-.964 0-1.778-.332-2.442-.995a3.275 3.275 0 0 1-.995-2.405c0-.628.151-1.208.453-1.745a3.305 3.305 0 0 1 1.238-1.258 3.31 3.31 0 0 1 1.693-.455Zm.029.637c-.481 0-.937.126-1.369.377-.43.252-.768.59-1.011 1.016a2.852 2.852 0 0 0-.362 1.426c0 .775.267 1.43.803 1.963a2.649 2.649 0 0 0 1.939.802c.506 0 .973-.122 1.402-.368a2.628 2.628 0 0 0 1.007-1.008c.24-.426.361-.9.361-1.42 0-.519-.121-.987-.361-1.406a2.699 2.699 0 0 0-1.017-1.005 2.747 2.747 0 0 0-1.392-.377Zm11.03 3.025v3.032h-.653v-3.032l-.199-.181-2.66 3.213h-.863l3.101-3.62-2.856-2.91h.873l2.604 2.76v-2.76h.652v2.76l2.621-2.76h.866l-2.856 2.91 3.101 3.62h-.863l-2.669-3.213-.199.181Zm9.837 3.032h-.68V26.82l-4.296 5.017h-.147v-6.53h.653v5.091l4.323-5.091h.147v6.53Zm1.709-5.895c.458-.532 1.023-.799 1.697-.799.535 0 .978.155 1.327.464.349.308.522.708.522 1.2 0 .693-.326 1.19-.979 1.492.859.267 1.288.843 1.288 1.731 0 .591-.192 1.069-.576 1.43-.385.36-.911.541-1.579.541-.467 0-.873-.097-1.216-.291-.345-.194-.67-.534-.974-1.019l.504-.299c.302.445.585.73.849.856.263.125.536.19.82.19.414 0 .767-.12 1.057-.36.29-.24.435-.591.435-1.057 0-.245-.05-.46-.148-.641a1.184 1.184 0 0 0-.419-.441 1.51 1.51 0 0 0-.515-.214 5.136 5.136 0 0 0-.802-.044h-.111v-.573h.218c.967 0 1.451-.392 1.451-1.176 0-.364-.111-.652-.331-.867a1.155 1.155 0 0 0-.837-.322c-.439 0-.85.199-1.235.596l-.446-.397Zm5.124-.635h.653v2.738h3.318v-2.738h.653v6.53h-.653V28.68h-3.318v3.156h-.653v-6.53Zm11.335 6.53h-.68V26.82l-4.296 5.017h-.147v-6.53h.653v5.092l4.323-5.092h.147v6.53Z" fill="#ED2E38"/><path fill-rule="evenodd" clip-rule="evenodd" d="m11.859.288.057-.011v29.195l-.057-.012-.035-.007-.046-.01-.138-.03-.046-.01-.122-.027-.106-.026-.045-.01-.046-.012-.09-.022-.046-.012-.171-.045-.095-.026c-.074-.02-.147-.042-.22-.063l-.053-.015-.044-.014-.177-.055-.045-.014-.044-.014-.044-.014-.205-.069-.07-.023-.251-.09-.042-.016a13.33 13.33 0 0 1-.259-.1l-.013-.004-.008-.004a15.548 15.548 0 0 1-.273-.11l-.004-.002-.008-.004-.013-.005-.022-.01A14.893 14.893 0 0 1 0 14.875 14.892 14.892 0 0 1 9.078 1.151l.022-.009.013-.005.008-.004.004-.001a14.4 14.4 0 0 1 .273-.111l.008-.004.013-.005c.086-.034.172-.067.259-.099L9.72.898c.083-.031.167-.061.252-.09l.07-.024.204-.069.044-.014.044-.014.045-.014.177-.055.044-.014.053-.015c.073-.021.146-.043.22-.063L10.968.5l.171-.045.046-.012.09-.022.046-.012.045-.01.106-.026.122-.028.046-.01.138-.03.046-.01.035-.007Zm6.2 10.308-2.612 3.378v-4.91h-.002c-.009-3.022-.01-6.041-.01-9.064 3.173.125 6.09 1.25 8.446 3.069-1.94 2.51-3.881 5.018-5.823 7.527Zm1.943 11.647.005-.003 3.458 4.75a14.735 14.735 0 0 1-8.03 2.759l.001-9.697h-.001v-4.096l2.51 3.459 2.057 2.828Z" fill="#3C324C"/><path fill-rule="evenodd" clip-rule="evenodd" d="m17.997 10.676-2.55 3.298V9.77a5.18 5.18 0 0 1 2.55.906Zm2.24 3.877a5.353 5.353 0 0 1-.016 1.04l-.398-.512.415-.528Zm-2.333 4.807a5.151 5.151 0 0 1-2.468.845V15.957l2.468 3.403ZM11.691 19a5.227 5.227 0 0 1-1.868-4.012 5.23 5.23 0 0 1 1.987-4.11l.052.072v7.825l-.17.225Z" fill="#ED2E38"/><path fill-rule="evenodd" clip-rule="evenodd" d="m25.342 22.835-6.114-7.923 6.251-7.791a12.881 12.881 0 0 1 2.59 7.767 12.88 12.88 0 0 1-2.727 7.947ZM11.916 10.796v8.382a5.231 5.231 0 0 1-2.093-4.191 5.23 5.23 0 0 1 2.093-4.191Z" fill="#ED2E38"/></svg>